<svg xmlns="http://www.w3.org/2000/svg" xmlns:xlink="http://www.w3.org/1999/xlink" width="500" zoomAndPan="magnify" viewBox="0 0 375 374.999991" height="500" preserveAspectRatio="xMidYMid meet" version="1.0"><defs><g/><clipPath id="185335b34d"><path d="M 35 143.53125 L 109 143.53125 L 109 220.78125 L 35 220.78125 Z M 35 143.53125 " clip-rule="nonzero"/></clipPath></defs><g clip-path="url(#185335b34d)"><path fill="#ffffff" d="M 108.089844 170.953125 C 107.238281 165.476562 105.71875 159.539062 103.558594 153.234375 L 105.957031 152.207031 L 101.960938 143.921875 L 88.488281 149.6875 L 89.445312 151.679688 C 95.40625 166.792969 97.484375 179.167969 95.601562 188.484375 C 94.242188 195.207031 90.875 200.136719 85.304688 203.558594 C 85.023438 203.726562 84.738281 203.898438 84.445312 204.066406 C 80.464844 206.308594 77.507812 207.398438 74.558594 207.703125 L 74.476562 207.710938 C 74.113281 207.753906 73.75 207.78125 73.367188 207.800781 C 70.109375 207.953125 66.5625 207.164062 62.921875 206.273438 C 62.753906 206.226562 62.609375 206.183594 62.476562 206.148438 C 62.453125 206.136719 62.433594 206.136719 62.40625 206.128906 C 56.5625 203.761719 52.6875 199.941406 50.566406 194.429688 C 43.90625 177.167969 56.234375 150.332031 56.359375 150.066406 L 56.242188 150.011719 L 56.285156 149.921875 L 43.078125 143.546875 L 38.734375 151.644531 L 41.550781 153.003906 C 40.574219 155.808594 39.523438 159.164062 38.601562 162.851562 C 34.996094 177.273438 35.046875 189.492188 38.761719 199.144531 C 42.199219 208.078125 48.59375 214.480469 57.789062 218.183594 C 58.4375 218.445312 58.878906 218.570312 59.324219 218.6875 C 59.394531 218.703125 59.484375 218.730469 59.582031 218.757812 L 59.847656 218.828125 C 63.855469 219.820312 68.117188 220.765625 72.570312 220.765625 C 73.03125 220.765625 73.492188 220.757812 73.953125 220.730469 C 74.601562 220.703125 75.25 220.648438 75.890625 220.578125 C 81.878906 219.953125 86.886719 217.480469 90.582031 215.398438 C 91.007812 215.15625 91.445312 214.90625 91.851562 214.648438 C 95.777344 212.238281 99.09375 209.21875 101.710938 205.675781 C 104.796875 201.503906 106.917969 196.601562 108.027344 191.089844 C 109.21875 185.132812 109.246094 178.355469 108.089844 170.953125 Z M 44.710938 162.226562 C 45.875 162.226562 46.816406 163.175781 46.816406 164.34375 C 46.816406 165.515625 45.875 166.460938 44.710938 166.460938 C 43.550781 166.460938 42.609375 165.515625 42.609375 164.34375 C 42.597656 163.175781 43.550781 162.226562 44.710938 162.226562 Z M 40.457031 181.695312 C 40.457031 180.527344 41.398438 179.578125 42.5625 179.578125 C 43.726562 179.578125 44.667969 180.527344 44.667969 181.695312 C 44.667969 182.867188 43.726562 183.8125 42.5625 183.8125 C 41.398438 183.8125 40.457031 182.867188 40.457031 181.695312 Z M 44.890625 200.691406 C 43.726562 200.691406 42.785156 199.746094 42.785156 198.574219 C 42.785156 197.40625 43.726562 196.457031 44.890625 196.457031 C 46.054688 196.457031 46.996094 197.40625 46.996094 198.574219 C 47.003906 199.746094 46.054688 200.691406 44.890625 200.691406 Z M 100.503906 162.226562 C 101.667969 162.226562 102.609375 163.175781 102.609375 164.34375 C 102.609375 165.515625 101.667969 166.460938 100.503906 166.460938 C 99.339844 166.460938 98.398438 165.515625 98.398438 164.34375 C 98.398438 163.175781 99.339844 162.226562 100.503906 162.226562 Z M 98.800781 200.691406 C 97.636719 200.691406 96.695312 199.746094 96.695312 198.574219 C 96.695312 197.40625 97.636719 196.457031 98.800781 196.457031 C 99.960938 196.457031 100.90625 197.40625 100.90625 198.574219 C 100.90625 199.746094 99.960938 200.691406 98.800781 200.691406 Z M 102.832031 183.820312 C 101.667969 183.820312 100.726562 182.875 100.726562 181.703125 C 100.726562 180.535156 101.667969 179.589844 102.832031 179.589844 C 103.996094 179.589844 104.9375 180.535156 104.9375 181.703125 C 104.945312 182.867188 103.996094 183.820312 102.832031 183.820312 Z M 102.832031 183.820312 " fill-opacity="1" fill-rule="nonzero"/></g><g fill="#ffffff" fill-opacity="1"><g transform="translate(130.375495, 171.553095)"><g><path d="M 2.203125 -29.625 L 14.890625 -29.625 L 14.890625 -24.25 L 11.765625 -24.25 L 11.765625 -15.640625 L 21.25 -23.90625 L 21.25 -29.625 L 31.359375 -29.625 L 31.359375 -23.859375 L 29.140625 -23.859375 L 19.265625 -15.390625 L 28.734375 -5.8125 L 31.140625 -5.8125 L 31.140625 0 L 21.3125 0 L 21.3125 -5.8125 L 11.765625 -15.34375 L 11.765625 -5.359375 L 14.890625 -5.359375 L 14.890625 0 L 2.203125 0 L 2.203125 -5.359375 L 5.28125 -5.359375 L 5.28125 -24.25 L 2.203125 -24.25 Z M 2.203125 -29.625 "/></g></g></g><g fill="#ffffff" fill-opacity="1"><g transform="translate(170.724326, 171.553095)"><g><path d="M 1 -29.625 L 12.875 -29.625 L 12.875 -24.25 L 10.171875 -24.25 L 10.171875 -11.96875 C 10.171875 -10.84375 10.296875 -9.890625 10.546875 -9.109375 C 10.796875 -8.328125 11.148438 -7.6875 11.609375 -7.1875 C 12.066406 -6.695312 12.609375 -6.335938 13.234375 -6.109375 C 13.859375 -5.878906 14.539062 -5.765625 15.28125 -5.765625 C 16.050781 -5.765625 16.75 -5.863281 17.375 -6.0625 C 18.007812 -6.257812 18.550781 -6.59375 19 -7.0625 C 19.457031 -7.539062 19.804688 -8.175781 20.046875 -8.96875 C 20.285156 -9.769531 20.40625 -10.769531 20.40625 -11.96875 L 20.40625 -24.25 L 17.265625 -24.25 L 17.265625 -29.625 L 29.140625 -29.625 L 29.140625 -24.25 L 26.78125 -24.25 L 26.78125 -12.71875 C 26.78125 -10.632812 26.476562 -8.78125 25.875 -7.15625 C 25.28125 -5.539062 24.457031 -4.171875 23.40625 -3.046875 C 22.351562 -1.929688 21.117188 -1.078125 19.703125 -0.484375 C 18.296875 0.0976562 16.785156 0.390625 15.171875 0.390625 C 13.566406 0.390625 12.066406 0.101562 10.671875 -0.46875 C 9.273438 -1.050781 8.054688 -1.894531 7.015625 -3 C 5.984375 -4.101562 5.164062 -5.441406 4.5625 -7.015625 C 3.96875 -8.585938 3.671875 -10.375 3.671875 -12.375 L 3.671875 -24.25 L 1 -24.25 Z M 1 -29.625 "/></g></g></g><g fill="#ffffff" fill-opacity="1"><g transform="translate(209.236097, 171.553095)"><g><path d="M 2.203125 -29.625 L 14.890625 -29.625 L 14.890625 -24.25 L 11.765625 -24.25 L 11.765625 -5.359375 L 18.21875 -5.359375 C 18.382812 -5.359375 18.546875 -5.40625 18.703125 -5.5 C 18.867188 -5.601562 19.015625 -5.734375 19.140625 -5.890625 C 19.265625 -6.046875 19.363281 -6.210938 19.4375 -6.390625 C 19.519531 -6.578125 19.5625 -6.753906 19.5625 -6.921875 L 19.5625 -10.890625 L 25.90625 -10.890625 L 25.90625 0 L 2.203125 0 L 2.203125 -5.359375 L 5.28125 -5.359375 L 5.28125 -24.25 L 2.203125 -24.25 Z M 2.203125 -29.625 "/></g></g></g><g fill="#ffffff" fill-opacity="1"><g transform="translate(243.546088, 171.553095)"><g><path d="M 2.203125 -29.625 L 14.890625 -29.625 L 14.890625 -24.28125 L 11.765625 -24.28125 L 11.765625 -5.359375 L 14.890625 -5.359375 L 14.890625 0 L 2.203125 0 L 2.203125 -5.359375 L 5.28125 -5.359375 L 5.28125 -24.28125 L 2.203125 -24.28125 Z M 2.203125 -29.625 "/></g></g></g><g fill="#ffffff" fill-opacity="1"><g transform="translate(267.38094, 171.553095)"><g><path d="M 23.6875 0 L 23.6875 -5.078125 C 22.882812 -3.660156 22.097656 -2.617188 21.328125 -1.953125 C 20.554688 -1.285156 19.6875 -0.75 18.71875 -0.34375 C 17.75 0.0507812 16.445312 0.242188 14.8125 0.234375 C 14.007812 0.222656 13.203125 0.128906 12.390625 -0.046875 C 11.585938 -0.222656 10.804688 -0.46875 10.046875 -0.78125 C 9.285156 -1.101562 8.546875 -1.488281 7.828125 -1.9375 C 7.109375 -2.394531 6.453125 -2.914062 5.859375 -3.5 C 4.410156 -4.957031 3.285156 -6.644531 2.484375 -8.5625 C 1.691406 -10.488281 1.296875 -12.585938 1.296875 -14.859375 C 1.296875 -16.253906 1.460938 -17.601562 1.796875 -18.90625 C 2.140625 -20.207031 2.613281 -21.421875 3.21875 -22.546875 C 3.832031 -23.679688 4.570312 -24.710938 5.4375 -25.640625 C 6.3125 -26.578125 7.273438 -27.378906 8.328125 -28.046875 C 9.390625 -28.710938 10.535156 -29.226562 11.765625 -29.59375 C 12.992188 -29.957031 14.28125 -30.140625 15.625 -30.140625 C 17.15625 -30.140625 18.488281 -29.929688 19.625 -29.515625 C 20.757812 -29.109375 21.976562 -28.347656 23.28125 -27.234375 L 27.65625 -27.234375 L 27.65625 -20.625 L 21.625 -20.625 C 21.019531 -21.550781 20.453125 -22.222656 19.921875 -22.640625 C 19.398438 -23.054688 18.828125 -23.398438 18.203125 -23.671875 C 17.585938 -23.941406 16.726562 -24.078125 15.625 -24.078125 C 14.519531 -24.078125 13.5 -23.828125 12.5625 -23.328125 C 11.625 -22.835938 10.8125 -22.171875 10.125 -21.328125 C 9.445312 -20.492188 8.910156 -19.503906 8.515625 -18.359375 C 8.128906 -17.222656 7.9375 -16.054688 7.9375 -14.859375 C 7.9375 -13.671875 8.109375 -12.539062 8.453125 -11.46875 C 8.804688 -10.40625 9.34375 -9.445312 10.0625 -8.59375 C 10.78125 -7.738281 11.613281 -7.082031 12.5625 -6.625 C 13.519531 -6.164062 14.539062 -5.9375 15.625 -5.9375 C 17 -5.9375 18.203125 -6.335938 19.234375 -7.140625 C 20.265625 -7.953125 21.007812 -9.054688 21.46875 -10.453125 L 15.8125 -10.453125 L 15.8125 -15.8125 L 29.53125 -15.8125 L 29.53125 0 Z M 23.6875 0 "/></g></g></g><g fill="#ffffff" fill-opacity="1"><g transform="translate(307.358449, 171.553095)"><g><path d="M 2.203125 -29.625 L 14.890625 -29.625 L 14.890625 -24.28125 L 11.765625 -24.28125 L 11.765625 -5.359375 L 14.890625 -5.359375 L 14.890625 0 L 2.203125 0 L 2.203125 -5.359375 L 5.28125 -5.359375 L 5.28125 -24.28125 L 2.203125 -24.28125 Z M 2.203125 -29.625 "/></g></g></g><g fill="#ffffff" fill-opacity="1"><g transform="translate(93.931373, 218.655466)"><g/></g></g><g fill="#ffffff" fill-opacity="1"><g transform="translate(108.880046, 218.655466)"><g/></g></g><g fill="#ffffff" fill-opacity="1"><g transform="translate(123.824607, 218.655466)"><g><path d="M 2.0625 -27.65625 L 23.453125 -27.65625 L 23.453125 -18.21875 L 17.53125 -18.21875 L 17.53125 -22.109375 L 10.984375 -22.109375 L 10.984375 -16.296875 L 16.65625 -16.296875 L 16.65625 -10.984375 L 10.984375 -10.984375 L 10.984375 -5 L 13.90625 -5 L 13.90625 0 L 2.0625 0 L 2.0625 -5 L 4.921875 -5 L 4.921875 -22.109375 L 2.0625 -22.109375 Z M 2.0625 -27.65625 "/></g></g></g><g fill="#ffffff" fill-opacity="1"><g transform="translate(154.749548, 218.655466)"><g><path d="M 2.0625 -27.65625 L 16.6875 -27.65625 C 18.113281 -27.65625 19.382812 -27.441406 20.5 -27.015625 C 21.625 -26.585938 22.566406 -26.019531 23.328125 -25.3125 C 24.097656 -24.601562 24.6875 -23.773438 25.09375 -22.828125 C 25.5 -21.890625 25.703125 -20.910156 25.703125 -19.890625 C 25.703125 -18.953125 25.597656 -18.128906 25.390625 -17.421875 C 25.191406 -16.710938 24.898438 -16.082031 24.515625 -15.53125 C 24.140625 -14.988281 23.671875 -14.507812 23.109375 -14.09375 C 22.546875 -13.675781 21.910156 -13.296875 21.203125 -12.953125 C 21.816406 -12.640625 22.359375 -12.15625 22.828125 -11.5 C 23.304688 -10.851562 23.671875 -10.007812 23.921875 -8.96875 L 24.84375 -5.375 L 27.125 -5.375 L 27.15625 0 L 19.140625 0 L 18.046875 -6.5625 C 17.929688 -7.34375 17.757812 -8.015625 17.53125 -8.578125 C 17.3125 -9.148438 17.015625 -9.613281 16.640625 -9.96875 C 16.265625 -10.320312 15.804688 -10.582031 15.265625 -10.75 C 14.722656 -10.925781 14.078125 -11.015625 13.328125 -11.015625 L 10.984375 -11.015625 L 10.984375 -5 L 13.515625 -5 L 13.515625 0 L 2.0625 0 L 2.0625 -5 L 4.921875 -5 L 4.921875 -22.640625 L 2.0625 -22.640625 Z M 10.984375 -22.640625 L 10.984375 -15.9375 L 14.609375 -15.9375 C 15.304688 -15.9375 15.929688 -16 16.484375 -16.125 C 17.035156 -16.257812 17.507812 -16.460938 17.90625 -16.734375 C 18.300781 -17.003906 18.601562 -17.347656 18.8125 -17.765625 C 19.03125 -18.179688 19.140625 -18.675781 19.140625 -19.25 C 19.140625 -20.3125 18.753906 -21.140625 17.984375 -21.734375 C 17.222656 -22.335938 16.097656 -22.640625 14.609375 -22.640625 Z M 10.984375 -22.640625 "/></g></g></g><g fill="#ffffff" fill-opacity="1"><g transform="translate(190.124499, 218.655466)"><g><path d="M 16.296875 -5 L 19.046875 -5 L 17.796875 -8.96875 L 9.296875 -8.96875 L 8.0625 -5 L 10.984375 -5 L 10.984375 0 L 0.5 0 L 0.5 -5 L 2.546875 -5 L 10.09375 -27.65625 L 17.40625 -27.65625 L 24.765625 -5 L 26.78125 -5 L 26.78125 0 L 16.296875 0 Z M 10.75 -13.640625 L 16.328125 -13.640625 L 13.515625 -22.640625 Z M 10.75 -13.640625 "/></g></g></g><g fill="#ffffff" fill-opacity="1"><g transform="translate(224.788183, 218.655466)"><g><path d="M 19.53125 -27.65625 L 30.046875 -27.65625 L 30.046875 -22.640625 L 27.796875 -22.640625 L 27.796875 0 L 21.75 0 L 10.234375 -17.875 L 10.234375 -5 L 12.546875 -5 L 12.546875 0 L 2.0625 0 L 2.0625 -5 L 4.34375 -5 L 4.34375 -22.640625 L 2.09375 -22.640625 L 2.09375 -27.65625 L 10.453125 -27.65625 L 21.890625 -9.546875 L 21.890625 -22.640625 L 19.53125 -22.640625 Z M 19.53125 -27.65625 "/></g></g></g><g fill="#ffffff" fill-opacity="1"><g transform="translate(263.22708, 218.655466)"><g><path d="M 2.0625 -27.65625 L 13.90625 -27.65625 L 13.90625 -22.640625 L 10.984375 -22.640625 L 10.984375 -14.59375 L 19.828125 -22.3125 L 19.828125 -27.65625 L 29.265625 -27.65625 L 29.265625 -22.265625 L 27.203125 -22.265625 L 17.984375 -14.359375 L 26.8125 -5.421875 L 29.0625 -5.421875 L 29.0625 0 L 19.890625 0 L 19.890625 -5.421875 L 10.984375 -14.3125 L 10.984375 -5 L 13.90625 -5 L 13.90625 0 L 2.0625 0 L 2.0625 -5 L 4.921875 -5 L 4.921875 -22.640625 L 2.0625 -22.640625 Z M 2.0625 -27.65625 "/></g></g></g><g fill="#ffffff" fill-opacity="1"><g transform="translate(300.881762, 218.655466)"><g><path d="M 16.296875 -5 L 19.046875 -5 L 17.796875 -8.96875 L 9.296875 -8.96875 L 8.0625 -5 L 10.984375 -5 L 10.984375 0 L 0.5 0 L 0.5 -5 L 2.546875 -5 L 10.09375 -27.65625 L 17.40625 -27.65625 L 24.765625 -5 L 26.78125 -5 L 26.78125 0 L 16.296875 0 Z M 10.75 -13.640625 L 16.328125 -13.640625 L 13.515625 -22.640625 Z M 10.75 -13.640625 "/></g></g></g></svg>