<svg xmlns="http://www.w3.org/2000/svg" xmlns:xlink="http://www.w3.org/1999/xlink" width="500" zoomAndPan="magnify" viewBox="0 0 375 374.999991" height="500" preserveAspectRatio="xMidYMid meet" version="1.0"><defs><g/><clipPath id="01e28ded00"><path d="M 94.445312 187.5 L 122.945312 187.5 L 122.945312 216.75 L 94.445312 216.75 Z M 94.445312 187.5 " clip-rule="nonzero"/></clipPath></defs><g clip-path="url(#01e28ded00)"><path fill="#ffffff" d="M 122.5 197.882812 C 122.175781 195.8125 121.589844 193.5625 120.761719 191.175781 L 121.683594 190.785156 L 120.148438 187.648438 L 114.976562 189.832031 L 115.34375 190.585938 C 117.632812 196.308594 118.429688 200.992188 117.707031 204.519531 C 117.1875 207.066406 115.894531 208.933594 113.757812 210.226562 C 113.648438 210.292969 113.539062 210.355469 113.425781 210.421875 C 111.898438 211.269531 110.761719 211.679688 109.628906 211.796875 L 109.601562 211.800781 C 109.460938 211.816406 109.320312 211.828125 109.175781 211.832031 C 107.921875 211.890625 106.5625 211.59375 105.164062 211.253906 C 105.097656 211.238281 105.046875 211.222656 104.992188 211.207031 C 104.984375 211.203125 104.976562 211.203125 104.964844 211.203125 C 102.722656 210.304688 101.238281 208.859375 100.421875 206.773438 C 97.863281 200.238281 102.597656 190.078125 102.644531 189.976562 L 102.601562 189.953125 L 102.617188 189.921875 L 97.546875 187.507812 L 95.878906 190.574219 L 96.960938 191.085938 C 96.585938 192.148438 96.183594 193.421875 95.828125 194.816406 C 94.445312 200.277344 94.464844 204.902344 95.890625 208.558594 C 97.210938 211.9375 99.664062 214.363281 103.195312 215.765625 C 103.441406 215.863281 103.613281 215.910156 103.785156 215.957031 C 103.8125 215.960938 103.84375 215.972656 103.882812 215.980469 L 103.984375 216.007812 C 105.523438 216.382812 107.160156 216.742188 108.867188 216.742188 C 109.042969 216.742188 109.222656 216.738281 109.398438 216.730469 C 109.648438 216.71875 109.898438 216.699219 110.140625 216.671875 C 112.441406 216.433594 114.363281 215.5 115.78125 214.710938 C 115.945312 214.621094 116.113281 214.523438 116.269531 214.425781 C 117.777344 213.515625 119.046875 212.371094 120.054688 211.027344 C 121.238281 209.449219 122.050781 207.59375 122.476562 205.507812 C 122.933594 203.253906 122.945312 200.6875 122.5 197.882812 Z M 98.175781 194.582031 C 98.621094 194.582031 98.984375 194.9375 98.984375 195.382812 C 98.984375 195.824219 98.621094 196.183594 98.175781 196.183594 C 97.726562 196.183594 97.367188 195.824219 97.367188 195.382812 C 97.363281 194.9375 97.726562 194.582031 98.175781 194.582031 Z M 96.542969 201.949219 C 96.542969 201.507812 96.902344 201.148438 97.351562 201.148438 C 97.796875 201.148438 98.15625 201.507812 98.15625 201.949219 C 98.15625 202.394531 97.796875 202.753906 97.351562 202.753906 C 96.902344 202.753906 96.542969 202.394531 96.542969 201.949219 Z M 98.242188 209.140625 C 97.796875 209.140625 97.433594 208.785156 97.433594 208.339844 C 97.433594 207.898438 97.796875 207.539062 98.242188 207.539062 C 98.691406 207.539062 99.050781 207.898438 99.050781 208.339844 C 99.054688 208.785156 98.691406 209.140625 98.242188 209.140625 Z M 119.589844 194.582031 C 120.035156 194.582031 120.398438 194.9375 120.398438 195.382812 C 120.398438 195.824219 120.035156 196.183594 119.589844 196.183594 C 119.144531 196.183594 118.78125 195.824219 118.78125 195.382812 C 118.78125 194.9375 119.144531 194.582031 119.589844 194.582031 Z M 118.933594 209.140625 C 118.488281 209.140625 118.128906 208.785156 118.128906 208.339844 C 118.128906 207.898438 118.488281 207.539062 118.933594 207.539062 C 119.382812 207.539062 119.742188 207.898438 119.742188 208.339844 C 119.742188 208.785156 119.382812 209.140625 118.933594 209.140625 Z M 120.484375 202.753906 C 120.035156 202.753906 119.675781 202.398438 119.675781 201.953125 C 119.675781 201.511719 120.035156 201.152344 120.484375 201.152344 C 120.929688 201.152344 121.292969 201.511719 121.292969 201.953125 C 121.292969 202.394531 120.929688 202.753906 120.484375 202.753906 Z M 120.484375 202.753906 " fill-opacity="1" fill-rule="nonzero"/></g><g fill="#ffffff" fill-opacity="1"><g transform="translate(92.664059, 178.555212)"><g><path d="M 2.203125 -29.609375 L 14.890625 -29.609375 L 14.890625 -24.234375 L 11.765625 -24.234375 L 11.765625 -15.625 L 21.234375 -23.890625 L 21.234375 -29.609375 L 31.328125 -29.609375 L 31.328125 -23.84375 L 29.125 -23.84375 L 19.265625 -15.375 L 28.71875 -5.796875 L 31.109375 -5.796875 L 31.109375 0 L 21.296875 0 L 21.296875 -5.796875 L 11.765625 -15.328125 L 11.765625 -5.359375 L 14.890625 -5.359375 L 14.890625 0 L 2.203125 0 L 2.203125 -5.359375 L 5.28125 -5.359375 L 5.28125 -24.234375 L 2.203125 -24.234375 Z M 2.203125 -29.609375 "/></g></g></g><g fill="#ffffff" fill-opacity="1"><g transform="translate(132.985119, 178.555212)"><g><path d="M 1 -29.609375 L 12.875 -29.609375 L 12.875 -24.234375 L 10.15625 -24.234375 L 10.15625 -11.953125 C 10.15625 -10.835938 10.28125 -9.890625 10.53125 -9.109375 C 10.789062 -8.328125 11.144531 -7.6875 11.59375 -7.1875 C 12.050781 -6.695312 12.59375 -6.335938 13.21875 -6.109375 C 13.84375 -5.878906 14.53125 -5.765625 15.28125 -5.765625 C 16.039062 -5.765625 16.738281 -5.859375 17.375 -6.046875 C 18.007812 -6.242188 18.550781 -6.582031 19 -7.0625 C 19.445312 -7.539062 19.789062 -8.175781 20.03125 -8.96875 C 20.269531 -9.757812 20.390625 -10.753906 20.390625 -11.953125 L 20.390625 -24.234375 L 17.25 -24.234375 L 17.25 -29.609375 L 29.125 -29.609375 L 29.125 -24.234375 L 26.765625 -24.234375 L 26.765625 -12.71875 C 26.765625 -10.632812 26.460938 -8.78125 25.859375 -7.15625 C 25.265625 -5.539062 24.441406 -4.171875 23.390625 -3.046875 C 22.335938 -1.929688 21.101562 -1.078125 19.6875 -0.484375 C 18.28125 0.0976562 16.769531 0.390625 15.15625 0.390625 C 13.550781 0.390625 12.050781 0.101562 10.65625 -0.46875 C 9.269531 -1.050781 8.054688 -1.894531 7.015625 -3 C 5.984375 -4.101562 5.164062 -5.441406 4.5625 -7.015625 C 3.96875 -8.585938 3.671875 -10.367188 3.671875 -12.359375 L 3.671875 -24.234375 L 1 -24.234375 Z M 1 -29.609375 "/></g></g></g><g fill="#ffffff" fill-opacity="1"><g transform="translate(171.470422, 178.555212)"><g><path d="M 2.203125 -29.609375 L 14.890625 -29.609375 L 14.890625 -24.234375 L 11.765625 -24.234375 L 11.765625 -5.359375 L 18.203125 -5.359375 C 18.367188 -5.359375 18.535156 -5.40625 18.703125 -5.5 C 18.867188 -5.59375 19.007812 -5.71875 19.125 -5.875 C 19.25 -6.03125 19.347656 -6.195312 19.421875 -6.375 C 19.503906 -6.5625 19.546875 -6.742188 19.546875 -6.921875 L 19.546875 -10.875 L 25.875 -10.875 L 25.875 0 L 2.203125 0 L 2.203125 -5.359375 L 5.28125 -5.359375 L 5.28125 -24.234375 L 2.203125 -24.234375 Z M 2.203125 -29.609375 "/></g></g></g><g fill="#ffffff" fill-opacity="1"><g transform="translate(205.756913, 178.555212)"><g><path d="M 2.203125 -29.609375 L 14.890625 -29.609375 L 14.890625 -24.265625 L 11.765625 -24.265625 L 11.765625 -5.359375 L 14.890625 -5.359375 L 14.890625 0 L 2.203125 0 L 2.203125 -5.359375 L 5.28125 -5.359375 L 5.28125 -24.265625 L 2.203125 -24.265625 Z M 2.203125 -29.609375 "/></g></g></g><g fill="#ffffff" fill-opacity="1"><g transform="translate(229.575671, 178.555212)"><g><path d="M 23.671875 0 L 23.671875 -5.078125 C 22.867188 -3.660156 22.082031 -2.617188 21.3125 -1.953125 C 20.539062 -1.285156 19.671875 -0.75 18.703125 -0.34375 C 17.734375 0.0507812 16.4375 0.242188 14.8125 0.234375 C 14 0.222656 13.1875 0.128906 12.375 -0.046875 C 11.570312 -0.222656 10.789062 -0.46875 10.03125 -0.78125 C 9.28125 -1.101562 8.539062 -1.488281 7.8125 -1.9375 C 7.09375 -2.394531 6.441406 -2.914062 5.859375 -3.5 C 4.410156 -4.957031 3.285156 -6.644531 2.484375 -8.5625 C 1.691406 -10.488281 1.296875 -12.582031 1.296875 -14.84375 C 1.296875 -16.238281 1.460938 -17.585938 1.796875 -18.890625 C 2.140625 -20.191406 2.613281 -21.40625 3.21875 -22.53125 C 3.832031 -23.664062 4.570312 -24.695312 5.4375 -25.625 C 6.300781 -26.5625 7.265625 -27.363281 8.328125 -28.03125 C 9.390625 -28.695312 10.53125 -29.210938 11.75 -29.578125 C 12.976562 -29.941406 14.265625 -30.125 15.609375 -30.125 C 17.140625 -30.125 18.472656 -29.914062 19.609375 -29.5 C 20.742188 -29.09375 21.960938 -28.328125 23.265625 -27.203125 L 27.640625 -27.203125 L 27.640625 -20.609375 L 21.609375 -20.609375 C 21.003906 -21.535156 20.4375 -22.207031 19.90625 -22.625 C 19.382812 -23.039062 18.8125 -23.382812 18.1875 -23.65625 C 17.570312 -23.925781 16.710938 -24.0625 15.609375 -24.0625 C 14.515625 -24.0625 13.5 -23.8125 12.5625 -23.3125 C 11.625 -22.820312 10.8125 -22.15625 10.125 -21.3125 C 9.445312 -20.476562 8.910156 -19.488281 8.515625 -18.34375 C 8.128906 -17.207031 7.9375 -16.039062 7.9375 -14.84375 C 7.9375 -13.65625 8.109375 -12.523438 8.453125 -11.453125 C 8.804688 -10.390625 9.34375 -9.429688 10.0625 -8.578125 C 10.78125 -7.734375 11.613281 -7.082031 12.5625 -6.625 C 13.507812 -6.164062 14.523438 -5.9375 15.609375 -5.9375 C 16.984375 -5.9375 18.1875 -6.335938 19.21875 -7.140625 C 20.25 -7.953125 20.992188 -9.054688 21.453125 -10.453125 L 15.796875 -10.453125 L 15.796875 -15.796875 L 29.515625 -15.796875 L 29.515625 0 Z M 23.671875 0 "/></g></g></g><g fill="#ffffff" fill-opacity="1"><g transform="translate(269.525666, 178.555212)"><g><path d="M 2.203125 -29.609375 L 14.890625 -29.609375 L 14.890625 -24.265625 L 11.765625 -24.265625 L 11.765625 -5.359375 L 14.890625 -5.359375 L 14.890625 0 L 2.203125 0 L 2.203125 -5.359375 L 5.28125 -5.359375 L 5.28125 -24.265625 L 2.203125 -24.265625 Z M 2.203125 -29.609375 "/></g></g></g><g fill="#ffffff" fill-opacity="1"><g transform="translate(111.078206, 215.30521)"><g/></g></g><g fill="#ffffff" fill-opacity="1"><g transform="translate(122.282872, 215.30521)"><g/></g></g><g fill="#ffffff" fill-opacity="1"><g transform="translate(133.484454, 215.30521)"><g><path d="M 1.546875 -20.734375 L 17.578125 -20.734375 L 17.578125 -13.65625 L 13.140625 -13.65625 L 13.140625 -16.578125 L 8.234375 -16.578125 L 8.234375 -12.203125 L 12.484375 -12.203125 L 12.484375 -8.234375 L 8.234375 -8.234375 L 8.234375 -3.75 L 10.421875 -3.75 L 10.421875 0 L 1.546875 0 L 1.546875 -3.75 L 3.6875 -3.75 L 3.6875 -16.578125 L 1.546875 -16.578125 Z M 1.546875 -20.734375 "/></g></g></g><g fill="#ffffff" fill-opacity="1"><g transform="translate(156.664011, 215.30521)"><g><path d="M 1.546875 -20.734375 L 12.515625 -20.734375 C 13.578125 -20.734375 14.523438 -20.570312 15.359375 -20.25 C 16.203125 -19.925781 16.910156 -19.5 17.484375 -18.96875 C 18.054688 -18.4375 18.492188 -17.816406 18.796875 -17.109375 C 19.109375 -16.398438 19.265625 -15.664062 19.265625 -14.90625 C 19.265625 -14.195312 19.1875 -13.578125 19.03125 -13.046875 C 18.882812 -12.523438 18.664062 -12.054688 18.375 -11.640625 C 18.09375 -11.234375 17.738281 -10.875 17.3125 -10.5625 C 16.894531 -10.25 16.421875 -9.960938 15.890625 -9.703125 C 16.347656 -9.472656 16.753906 -9.113281 17.109375 -8.625 C 17.472656 -8.132812 17.742188 -7.503906 17.921875 -6.734375 L 18.625 -4.03125 L 20.328125 -4.03125 L 20.359375 0 L 14.34375 0 L 13.515625 -4.921875 C 13.441406 -5.503906 13.316406 -6.003906 13.140625 -6.421875 C 12.972656 -6.847656 12.75 -7.195312 12.46875 -7.46875 C 12.1875 -7.738281 11.84375 -7.9375 11.4375 -8.0625 C 11.03125 -8.195312 10.550781 -8.265625 10 -8.265625 L 8.234375 -8.265625 L 8.234375 -3.75 L 10.125 -3.75 L 10.125 0 L 1.546875 0 L 1.546875 -3.75 L 3.6875 -3.75 L 3.6875 -16.96875 L 1.546875 -16.96875 Z M 8.234375 -16.96875 L 8.234375 -11.953125 L 10.953125 -11.953125 C 11.472656 -11.953125 11.9375 -12 12.34375 -12.09375 C 12.757812 -12.1875 13.113281 -12.335938 13.40625 -12.546875 C 13.707031 -12.753906 13.9375 -13.007812 14.09375 -13.3125 C 14.257812 -13.625 14.34375 -13.992188 14.34375 -14.421875 C 14.34375 -15.222656 14.054688 -15.847656 13.484375 -16.296875 C 12.910156 -16.742188 12.066406 -16.96875 10.953125 -16.96875 Z M 8.234375 -16.96875 "/></g></g></g><g fill="#ffffff" fill-opacity="1"><g transform="translate(183.17904, 215.30521)"><g><path d="M 12.203125 -3.75 L 14.28125 -3.75 L 13.34375 -6.734375 L 6.96875 -6.734375 L 6.046875 -3.75 L 8.234375 -3.75 L 8.234375 0 L 0.375 0 L 0.375 -3.75 L 1.921875 -3.75 L 7.5625 -20.734375 L 13.046875 -20.734375 L 18.5625 -3.75 L 20.078125 -3.75 L 20.078125 0 L 12.203125 0 Z M 8.046875 -10.234375 L 12.234375 -10.234375 L 10.125 -16.96875 Z M 8.046875 -10.234375 "/></g></g></g><g fill="#ffffff" fill-opacity="1"><g transform="translate(209.160943, 215.30521)"><g><path d="M 14.640625 -20.734375 L 22.515625 -20.734375 L 22.515625 -16.96875 L 20.84375 -16.96875 L 20.84375 0 L 16.296875 0 L 7.671875 -13.40625 L 7.671875 -3.75 L 9.40625 -3.75 L 9.40625 0 L 1.546875 0 L 1.546875 -3.75 L 3.25 -3.75 L 3.25 -16.96875 L 1.578125 -16.96875 L 1.578125 -20.734375 L 7.828125 -20.734375 L 16.40625 -7.15625 L 16.40625 -16.96875 L 14.640625 -16.96875 Z M 14.640625 -20.734375 "/></g></g></g><g fill="#ffffff" fill-opacity="1"><g transform="translate(237.97253, 215.30521)"><g><path d="M 1.546875 -20.734375 L 10.421875 -20.734375 L 10.421875 -16.96875 L 8.234375 -16.96875 L 8.234375 -10.9375 L 14.859375 -16.71875 L 14.859375 -20.734375 L 21.9375 -20.734375 L 21.9375 -16.6875 L 20.390625 -16.6875 L 13.484375 -10.765625 L 20.09375 -4.0625 L 21.78125 -4.0625 L 21.78125 0 L 14.90625 0 L 14.90625 -4.0625 L 8.234375 -10.734375 L 8.234375 -3.75 L 10.421875 -3.75 L 10.421875 0 L 1.546875 0 L 1.546875 -3.75 L 3.6875 -3.75 L 3.6875 -16.96875 L 1.546875 -16.96875 Z M 1.546875 -20.734375 "/></g></g></g><g fill="#ffffff" fill-opacity="1"><g transform="translate(266.196313, 215.30521)"><g><path d="M 12.203125 -3.75 L 14.28125 -3.75 L 13.34375 -6.734375 L 6.96875 -6.734375 L 6.046875 -3.75 L 8.234375 -3.75 L 8.234375 0 L 0.375 0 L 0.375 -3.75 L 1.921875 -3.75 L 7.5625 -20.734375 L 13.046875 -20.734375 L 18.5625 -3.75 L 20.078125 -3.75 L 20.078125 0 L 12.203125 0 Z M 8.046875 -10.234375 L 12.234375 -10.234375 L 10.125 -16.96875 Z M 8.046875 -10.234375 "/></g></g></g></svg>